<?xml version="1.0" encoding="utf-8"?>
<!DOCTYPE svg PUBLIC "-//W3C//DTD SVG 1.1//EN" "http://www.w3.org/Graphics/SVG/1.1/DTD/svg11.dtd">

<svg xmlns="http://www.w3.org/2000/svg" x="0px" y="0px"
                    width="100" height="100"
                    viewBox="0 0 172 172"
                    style=" fill:#ffffff;"><g fill="none" fill-rule="none" stroke="none" stroke-width="1" stroke-linecap="butt" stroke-linejoin="miter" stroke-miterlimit="10" stroke-dasharray="" stroke-dashoffset="0" font-family="none" font-weight="none" font-size="none" text-anchor="none" style="mix-blend-mode: normal"><path d="M0,172v-172h172v172z" fill="none" fill-rule="nonzero"></path><g fill="#ecf0f1" fill-rule="evenodd"><path d="M134.16,137.6l-48.16,13.76l-48.16,-13.76l-10.32,-116.96h116.96c-3.44,38.98219 -6.88,77.97781 -10.32,116.96zM136.96844,27.52h-101.93687l9.245,104.75875l41.72344,11.9325l41.72344,-11.9325zM57.79469,96.32h13.76l0.33594,8.6l14.10937,4.81063l14.10938,-4.81063l1.02125,-15.48h-30.26125l-0.69875,-13.76h31.65875l1.02125,-13.76h-47.46125l-1.03469,-13.76h62.95469l-1.72,27.52l-2.41875,39.56l-27.17063,8.94938l-27.17062,-8.94938z"></path></g></g></svg>