<?xml version="1.0" encoding="utf-8"?>
<!DOCTYPE svg PUBLIC "-//W3C//DTD SVG 1.1//EN" "http://www.w3.org/2000/svg">

<svg xmlns="http://www.w3.org/2000/svg" x="0px" y="0px"
width="100" height="100"
viewBox="0 0 172 172"
style=" fill:#ECF0F1;"><g fill="none" fill-rule="nonzero" stroke="none" stroke-width="1" stroke-linecap="butt" stroke-linejoin="miter" stroke-miterlimit="10" stroke-dasharray="" stroke-dashoffset="0" font-family="none" font-weight="none" font-size="none" text-anchor="none" style="mix-blend-mode: normal"><path d="M0,172v-172h172v172z" fill="none"></path><g fill="#ecf0f1"><path d="M137.06967,28.66667l-11.96117,103.40783l-39.1085,10.7285l-39.1085,-10.7285l-11.9755,-103.40783h102.15367M153.15167,14.33333h-134.31767l14.921,129l52.23783,14.33333l52.23783,-14.33333l14.921,-129z"></path><path d="M153.15167,14.33333h-134.31767l14.921,129l52.23783,14.33333l52.23783,-14.33333z" opacity="0.3"></path><path d="M120.57917,57.921h-54.868l1.30433,15.61617h52.245l-3.92017,46.13183l-29.33317,9.331l-0.28667,-0.09317l-29.0035,-9.245l-1.58383,-18.79817h14.20433l0.6235,7.30283l16.20383,3.569l15.91717,-3.57617l1.69133,-19.74417h-49.708l-3.8485,-45.41517h71.638z"></path></g></g></svg>